<?xml version="1.0" encoding="UTF-8"?>
<svg xmlns="http://www.w3.org/2000/svg" xmlns:xlink="http://www.w3.org/1999/xlink" width="32pt" height="32pt" viewBox="0 0 32 32" version="1.1">
<g id="surface1">
<path style=" stroke:none;fill-rule:nonzero;fill:rgb(1.176471%,46.666667%,73.72549%);fill-opacity:1;" d="M 15.660156 31.34375 C 15.464844 31.277344 15.296875 31.160156 15.164062 31.007812 L 0.785156 14.011719 C 0.625 13.820312 0.535156 13.582031 0.535156 13.332031 L 6.203125 13.332031 Z M 15.660156 31.34375 "/>
<path style=" stroke:none;fill-rule:nonzero;fill:rgb(0.784314%,66.27451%,95.686275%);fill-opacity:1;" d="M 15.878906 31.390625 C 15.804688 31.382812 15.730469 31.367188 15.660156 31.34375 L 6.203125 13.332031 L 12.1875 13.332031 Z M 15.878906 31.390625 "/>
<path style=" stroke:none;fill-rule:nonzero;fill:rgb(1.176471%,46.666667%,73.72549%);fill-opacity:1;" d="M 31.464844 13.332031 C 31.464844 13.582031 31.375 13.820312 31.214844 14.011719 L 16.835938 31.007812 C 16.703125 31.160156 16.535156 31.277344 16.339844 31.34375 L 25.796875 13.332031 Z M 31.464844 13.332031 "/>
<path style=" stroke:none;fill-rule:nonzero;fill:rgb(96.078431%,96.078431%,96.078431%);fill-opacity:1;" d="M 24.117188 4.367188 L 22.714844 7.289062 L 19.8125 13.332031 L 16 4.265625 L 23.652344 4.265625 C 23.8125 4.265625 23.972656 4.300781 24.117188 4.367188 Z M 24.117188 4.367188 "/>
<path style=" stroke:none;fill-rule:nonzero;fill:rgb(96.078431%,96.078431%,96.078431%);fill-opacity:1;" d="M 16 4.265625 L 12.1875 13.332031 L 9.285156 7.289062 L 7.882812 4.367188 C 8.027344 4.300781 8.1875 4.265625 8.347656 4.265625 Z M 16 4.265625 "/>
<path style=" stroke:none;fill-rule:nonzero;fill:rgb(0.784314%,66.27451%,95.686275%);fill-opacity:1;" d="M 19.8125 13.332031 L 12.1875 13.332031 L 16 4.265625 Z M 19.8125 13.332031 "/>
<path style=" stroke:none;fill-rule:nonzero;fill:rgb(1.176471%,46.666667%,73.72549%);fill-opacity:1;" d="M 19.8125 13.332031 L 16.128906 31.390625 C 16.042969 31.398438 15.960938 31.398438 15.878906 31.390625 L 12.1875 13.332031 Z M 19.8125 13.332031 "/>
<path style=" stroke:none;fill-rule:nonzero;fill:rgb(0.784314%,66.27451%,95.686275%);fill-opacity:1;" d="M 31.214844 12.652344 L 24.492188 4.65625 C 24.386719 4.535156 24.261719 4.4375 24.117188 4.367188 L 22.714844 7.289062 L 19.8125 13.332031 L 31.464844 13.332031 C 31.464844 13.082031 31.378906 12.839844 31.214844 12.652344 Z M 31.214844 12.652344 "/>
<path style=" stroke:none;fill-rule:nonzero;fill:rgb(0.784314%,66.27451%,95.686275%);fill-opacity:1;" d="M 7.882812 4.367188 C 7.738281 4.4375 7.613281 4.535156 7.507812 4.65625 L 0.785156 12.652344 C 0.621094 12.839844 0.535156 13.082031 0.535156 13.332031 L 12.1875 13.332031 L 9.285156 7.289062 Z M 7.882812 4.367188 "/>
<path style=" stroke:none;fill-rule:nonzero;fill:rgb(0.784314%,66.27451%,95.686275%);fill-opacity:1;" d="M 25.796875 13.332031 L 16.339844 31.34375 C 16.273438 31.367188 16.199219 31.382812 16.128906 31.390625 L 19.8125 13.332031 Z M 25.796875 13.332031 "/>
<path style=" stroke:none;fill-rule:nonzero;fill:rgb(0%,0%,0%);fill-opacity:1;" d="M 23.652344 3.734375 L 8.34375 3.734375 C 7.863281 3.730469 7.40625 3.945312 7.097656 4.3125 L 0.375 12.308594 C -0.125 12.902344 -0.121094 13.765625 0.378906 14.355469 L 14.753906 31.355469 C 15.066406 31.71875 15.519531 31.929688 16 31.929688 C 16.480469 31.929688 16.933594 31.71875 17.246094 31.355469 L 31.621094 14.355469 C 32.121094 13.765625 32.125 12.902344 31.625 12.308594 L 24.902344 4.308594 C 24.589844 3.941406 24.132812 3.730469 23.652344 3.734375 Z M 20.660156 12.800781 L 24.289062 5.242188 L 30.644531 12.800781 Z M 16 5.644531 L 19.007812 12.800781 L 12.992188 12.800781 Z M 12.15625 12.035156 L 8.679688 4.800781 L 15.199219 4.800781 Z M 16.800781 4.800781 L 23.320312 4.800781 L 19.84375 12.035156 Z M 7.710938 5.242188 L 11.339844 12.800781 L 7.070312 12.800781 L 8.308594 10.375 C 8.394531 10.207031 8.386719 10.003906 8.28125 9.84375 C 8.179688 9.683594 7.996094 9.589844 7.804688 9.601562 C 7.617188 9.609375 7.445312 9.722656 7.359375 9.890625 L 5.875 12.800781 L 1.355469 12.800781 Z M 1.363281 13.867188 L 5.878906 13.867188 L 11.171875 23.953125 C 11.257812 24.125 11.433594 24.238281 11.625 24.246094 C 11.820312 24.257812 12 24.160156 12.105469 23.996094 C 12.207031 23.832031 12.210938 23.625 12.117188 23.457031 L 7.082031 13.867188 L 11.753906 13.867188 L 15.058594 30.0625 Z M 16.429688 30.667969 C 16.390625 30.707031 16.34375 30.742188 16.292969 30.769531 L 12.84375 13.867188 L 19.15625 13.867188 L 16.566406 26.558594 C 16.523438 26.75 16.585938 26.945312 16.730469 27.074219 C 16.875 27.207031 17.074219 27.246094 17.257812 27.183594 C 17.441406 27.121094 17.578125 26.964844 17.609375 26.773438 L 20.246094 13.867188 L 24.917969 13.867188 L 19.882812 23.457031 C 19.789062 23.625 19.792969 23.832031 19.894531 23.996094 C 20 24.160156 20.179688 24.257812 20.375 24.246094 C 20.566406 24.238281 20.742188 24.125 20.828125 23.953125 L 26.121094 13.867188 L 30.636719 13.867188 Z M 16.429688 30.667969 "/>
<path style=" stroke:none;fill-rule:nonzero;fill:rgb(0%,0%,0%);fill-opacity:1;" d="M 2.132812 31.464844 C 2.132812 31.761719 2.371094 32 2.667969 32 L 3.734375 32 C 4.027344 32 4.265625 31.761719 4.265625 31.464844 C 4.265625 31.171875 4.027344 30.933594 3.734375 30.933594 L 2.667969 30.933594 C 2.371094 30.933594 2.132812 31.171875 2.132812 31.464844 Z M 2.132812 31.464844 "/>
<path style=" stroke:none;fill-rule:nonzero;fill:rgb(0%,0%,0%);fill-opacity:1;" d="M 5.867188 32 L 10.667969 32 C 10.960938 32 11.199219 31.761719 11.199219 31.464844 C 11.199219 31.171875 10.960938 30.933594 10.667969 30.933594 L 5.867188 30.933594 C 5.570312 30.933594 5.332031 31.171875 5.332031 31.464844 C 5.332031 31.761719 5.570312 32 5.867188 32 Z M 5.867188 32 "/>
<path style=" stroke:none;fill-rule:nonzero;fill:rgb(0%,0%,0%);fill-opacity:1;" d="M 28.265625 30.933594 C 27.972656 30.933594 27.734375 31.171875 27.734375 31.464844 C 27.734375 31.761719 27.972656 32 28.265625 32 L 29.332031 32 C 29.628906 32 29.867188 31.761719 29.867188 31.464844 C 29.867188 31.171875 29.628906 30.933594 29.332031 30.933594 Z M 28.265625 30.933594 "/>
<path style=" stroke:none;fill-rule:nonzero;fill:rgb(0%,0%,0%);fill-opacity:1;" d="M 21.332031 30.933594 C 21.039062 30.933594 20.800781 31.171875 20.800781 31.464844 C 20.800781 31.761719 21.039062 32 21.332031 32 L 26.132812 32 C 26.429688 32 26.667969 31.761719 26.667969 31.464844 C 26.667969 31.171875 26.429688 30.933594 26.132812 30.933594 Z M 21.332031 30.933594 "/>
<path style=" stroke:none;fill-rule:nonzero;fill:rgb(0%,0%,0%);fill-opacity:1;" d="M 28.800781 2.132812 C 29.09375 2.132812 29.332031 1.894531 29.332031 1.601562 L 29.332031 0.535156 C 29.332031 0.238281 29.09375 0 28.800781 0 C 28.503906 0 28.265625 0.238281 28.265625 0.535156 L 28.265625 1.601562 C 28.265625 1.894531 28.503906 2.132812 28.800781 2.132812 Z M 28.800781 2.132812 "/>
<path style=" stroke:none;fill-rule:nonzero;fill:rgb(0%,0%,0%);fill-opacity:1;" d="M 28.265625 5.867188 C 28.265625 6.160156 28.503906 6.398438 28.800781 6.398438 C 29.09375 6.398438 29.332031 6.160156 29.332031 5.867188 L 29.332031 4.800781 C 29.332031 4.503906 29.09375 4.265625 28.800781 4.265625 C 28.503906 4.265625 28.265625 4.503906 28.265625 4.800781 Z M 28.265625 5.867188 "/>
<path style=" stroke:none;fill-rule:nonzero;fill:rgb(0%,0%,0%);fill-opacity:1;" d="M 27.199219 3.734375 C 27.496094 3.734375 27.734375 3.496094 27.734375 3.199219 C 27.734375 2.90625 27.496094 2.667969 27.199219 2.667969 L 26.132812 2.667969 C 25.839844 2.667969 25.601562 2.90625 25.601562 3.199219 C 25.601562 3.496094 25.839844 3.734375 26.132812 3.734375 Z M 27.199219 3.734375 "/>
<path style=" stroke:none;fill-rule:nonzero;fill:rgb(0%,0%,0%);fill-opacity:1;" d="M 31.464844 2.667969 L 30.398438 2.667969 C 30.105469 2.667969 29.867188 2.90625 29.867188 3.199219 C 29.867188 3.496094 30.105469 3.734375 30.398438 3.734375 L 31.464844 3.734375 C 31.761719 3.734375 32 3.496094 32 3.199219 C 32 2.90625 31.761719 2.667969 31.464844 2.667969 Z M 31.464844 2.667969 "/>
<path style=" stroke:none;fill-rule:nonzero;fill:rgb(0%,0%,0%);fill-opacity:1;" d="M 3.199219 24.535156 C 3.496094 24.535156 3.734375 24.292969 3.734375 24 L 3.734375 22.933594 C 3.734375 22.640625 3.496094 22.398438 3.199219 22.398438 C 2.90625 22.398438 2.667969 22.640625 2.667969 22.933594 L 2.667969 24 C 2.667969 24.292969 2.90625 24.535156 3.199219 24.535156 Z M 3.199219 24.535156 "/>
<path style=" stroke:none;fill-rule:nonzero;fill:rgb(0%,0%,0%);fill-opacity:1;" d="M 2.667969 28.265625 C 2.667969 28.5625 2.90625 28.800781 3.199219 28.800781 C 3.496094 28.800781 3.734375 28.5625 3.734375 28.265625 L 3.734375 27.199219 C 3.734375 26.90625 3.496094 26.667969 3.199219 26.667969 C 2.90625 26.667969 2.667969 26.90625 2.667969 27.199219 Z M 2.667969 28.265625 "/>
<path style=" stroke:none;fill-rule:nonzero;fill:rgb(0%,0%,0%);fill-opacity:1;" d="M 0.535156 26.132812 L 1.601562 26.132812 C 1.894531 26.132812 2.132812 25.894531 2.132812 25.601562 C 2.132812 25.304688 1.894531 25.066406 1.601562 25.066406 L 0.535156 25.066406 C 0.238281 25.066406 0 25.304688 0 25.601562 C 0 25.894531 0.238281 26.132812 0.535156 26.132812 Z M 0.535156 26.132812 "/>
<path style=" stroke:none;fill-rule:nonzero;fill:rgb(0%,0%,0%);fill-opacity:1;" d="M 6.398438 25.601562 C 6.398438 25.304688 6.160156 25.066406 5.867188 25.066406 L 4.800781 25.066406 C 4.503906 25.066406 4.265625 25.304688 4.265625 25.601562 C 4.265625 25.894531 4.503906 26.132812 4.800781 26.132812 L 5.867188 26.132812 C 6.160156 26.132812 6.398438 25.894531 6.398438 25.601562 Z M 6.398438 25.601562 "/>
</g>
</svg>
